<mxfile host="app.diagrams.net" agent="Mozilla/5.0 (Macintosh; Intel Mac OS X 10_15_7) AppleWebKit/537.36 (KHTML, like Gecko) Chrome/140.0.0.0 Safari/537.36" version="28.2.4">
  <diagram id="FiXUJnzLlhFP-MB1lQGa" name="Page-1">
    <mxGraphModel dx="976" dy="565" grid="1" gridSize="10" guides="1" tooltips="1" connect="1" arrows="1" fold="1" page="1" pageScale="1" pageWidth="850" pageHeight="1100" math="0" shadow="0">
      <root>
        <mxCell id="0" />
        <mxCell id="1" parent="0" />
        <mxCell id="vgRy7pZKUeW7eWB3Pxzg-1" value="Nudity probability" style="rounded=1;whiteSpace=wrap;html=1;" parent="1" vertex="1">
          <mxGeometry x="240" y="440" width="80" height="40" as="geometry" />
        </mxCell>
        <mxCell id="vgRy7pZKUeW7eWB3Pxzg-20" style="edgeStyle=orthogonalEdgeStyle;rounded=0;orthogonalLoop=1;jettySize=auto;html=1;exitX=0.5;exitY=1;exitDx=0;exitDy=0;entryX=0.5;entryY=0;entryDx=0;entryDy=0;" parent="1" source="vgRy7pZKUeW7eWB3Pxzg-7" target="vgRy7pZKUeW7eWB3Pxzg-14" edge="1">
          <mxGeometry relative="1" as="geometry" />
        </mxCell>
        <mxCell id="vgRy7pZKUeW7eWB3Pxzg-7" value="Fused features" style="rounded=1;whiteSpace=wrap;html=1;" parent="1" vertex="1">
          <mxGeometry x="80" y="40" width="400" height="40" as="geometry" />
        </mxCell>
        <mxCell id="vgRy7pZKUeW7eWB3Pxzg-12" value="Violence probability" style="rounded=1;whiteSpace=wrap;html=1;" parent="1" vertex="1">
          <mxGeometry x="80" y="440" width="80" height="40" as="geometry" />
        </mxCell>
        <mxCell id="vgRy7pZKUeW7eWB3Pxzg-13" value="Hate probability" style="rounded=1;whiteSpace=wrap;html=1;" parent="1" vertex="1">
          <mxGeometry x="400" y="440" width="80" height="40" as="geometry" />
        </mxCell>
        <mxCell id="vgRy7pZKUeW7eWB3Pxzg-22" style="edgeStyle=orthogonalEdgeStyle;rounded=0;orthogonalLoop=1;jettySize=auto;html=1;exitX=0.5;exitY=1;exitDx=0;exitDy=0;entryX=0.5;entryY=0;entryDx=0;entryDy=0;" parent="1" source="vgRy7pZKUeW7eWB3Pxzg-14" target="vgRy7pZKUeW7eWB3Pxzg-15" edge="1">
          <mxGeometry relative="1" as="geometry" />
        </mxCell>
        <mxCell id="vgRy7pZKUeW7eWB3Pxzg-14" value="Shared layers" style="rounded=1;whiteSpace=wrap;html=1;" parent="1" vertex="1">
          <mxGeometry x="240" y="120" width="80" height="40" as="geometry" />
        </mxCell>
        <mxCell id="vgRy7pZKUeW7eWB3Pxzg-17" style="edgeStyle=orthogonalEdgeStyle;rounded=0;orthogonalLoop=1;jettySize=auto;html=1;exitX=0.5;exitY=1;exitDx=0;exitDy=0;entryX=0.5;entryY=0;entryDx=0;entryDy=0;" parent="1" source="vgRy7pZKUeW7eWB3Pxzg-15" target="vgRy7pZKUeW7eWB3Pxzg-9" edge="1">
          <mxGeometry relative="1" as="geometry" />
        </mxCell>
        <mxCell id="IBvZnXL90J9VCQpXEN-b-2" style="edgeStyle=orthogonalEdgeStyle;rounded=0;orthogonalLoop=1;jettySize=auto;html=1;exitX=0;exitY=0.5;exitDx=0;exitDy=0;entryX=0;entryY=0.5;entryDx=0;entryDy=0;" parent="1" source="vgRy7pZKUeW7eWB3Pxzg-15" target="vgRy7pZKUeW7eWB3Pxzg-3" edge="1">
          <mxGeometry relative="1" as="geometry" />
        </mxCell>
        <mxCell id="IBvZnXL90J9VCQpXEN-b-3" style="edgeStyle=orthogonalEdgeStyle;rounded=0;orthogonalLoop=1;jettySize=auto;html=1;exitX=1;exitY=0.5;exitDx=0;exitDy=0;entryX=1;entryY=0.5;entryDx=0;entryDy=0;" parent="1" source="vgRy7pZKUeW7eWB3Pxzg-15" target="vgRy7pZKUeW7eWB3Pxzg-11" edge="1">
          <mxGeometry relative="1" as="geometry" />
        </mxCell>
        <mxCell id="vgRy7pZKUeW7eWB3Pxzg-15" value="Transformed features" style="rounded=1;whiteSpace=wrap;html=1;" parent="1" vertex="1">
          <mxGeometry x="80" y="200" width="400" height="40" as="geometry" />
        </mxCell>
        <mxCell id="vgRy7pZKUeW7eWB3Pxzg-28" value="" style="swimlane;startSize=0;" parent="1" vertex="1">
          <mxGeometry x="40" y="280" width="480" height="120" as="geometry" />
        </mxCell>
        <mxCell id="vgRy7pZKUeW7eWB3Pxzg-3" value="Violence classification head" style="rounded=1;whiteSpace=wrap;html=1;" parent="vgRy7pZKUeW7eWB3Pxzg-28" vertex="1">
          <mxGeometry x="40" y="40" width="80" height="40" as="geometry" />
        </mxCell>
        <mxCell id="vgRy7pZKUeW7eWB3Pxzg-11" value="Hate classification head" style="rounded=1;whiteSpace=wrap;html=1;" parent="vgRy7pZKUeW7eWB3Pxzg-28" vertex="1">
          <mxGeometry x="360" y="40" width="80" height="40" as="geometry" />
        </mxCell>
        <mxCell id="qyU0UYEC4IYO7kHjrdzT-1" value="Task specific layers" style="text;html=1;strokeColor=none;fillColor=none;align=center;verticalAlign=middle;whiteSpace=wrap;rounded=0;" parent="vgRy7pZKUeW7eWB3Pxzg-28" vertex="1">
          <mxGeometry width="150" height="30" as="geometry" />
        </mxCell>
        <mxCell id="vgRy7pZKUeW7eWB3Pxzg-9" value="Nudity classification head" style="rounded=1;whiteSpace=wrap;html=1;" parent="vgRy7pZKUeW7eWB3Pxzg-28" vertex="1">
          <mxGeometry x="200" y="40" width="80" height="40" as="geometry" />
        </mxCell>
        <mxCell id="IBvZnXL90J9VCQpXEN-b-4" style="edgeStyle=orthogonalEdgeStyle;rounded=0;orthogonalLoop=1;jettySize=auto;html=1;exitX=0.5;exitY=1;exitDx=0;exitDy=0;entryX=0.5;entryY=0;entryDx=0;entryDy=0;" parent="1" source="vgRy7pZKUeW7eWB3Pxzg-11" target="vgRy7pZKUeW7eWB3Pxzg-13" edge="1">
          <mxGeometry relative="1" as="geometry" />
        </mxCell>
        <mxCell id="IBvZnXL90J9VCQpXEN-b-5" style="edgeStyle=orthogonalEdgeStyle;rounded=0;orthogonalLoop=1;jettySize=auto;html=1;exitX=0.5;exitY=1;exitDx=0;exitDy=0;entryX=0.5;entryY=0;entryDx=0;entryDy=0;" parent="1" source="vgRy7pZKUeW7eWB3Pxzg-9" target="vgRy7pZKUeW7eWB3Pxzg-1" edge="1">
          <mxGeometry relative="1" as="geometry" />
        </mxCell>
        <mxCell id="IBvZnXL90J9VCQpXEN-b-6" style="edgeStyle=orthogonalEdgeStyle;rounded=0;orthogonalLoop=1;jettySize=auto;html=1;exitX=0.5;exitY=1;exitDx=0;exitDy=0;entryX=0.5;entryY=0;entryDx=0;entryDy=0;" parent="1" source="vgRy7pZKUeW7eWB3Pxzg-3" target="vgRy7pZKUeW7eWB3Pxzg-12" edge="1">
          <mxGeometry relative="1" as="geometry" />
        </mxCell>
      </root>
    </mxGraphModel>
  </diagram>
</mxfile>
